<svg width="28" height="28" viewBox="0 0 28 28" fill="none" xmlns="http://www.w3.org/2000/svg">
<g clip-path="url(#clip0_460_4464)">
<path fill-rule="evenodd" clip-rule="evenodd" d="M1.36741 8.975C1.23605 10.6468 1.16912 12.3229 1.16675 13.9998C1.16675 15.9038 1.26008 17.6947 1.37908 19.1798C1.54941 21.2997 3.16525 22.9202 5.25008 23.0648C7.34308 23.2107 10.2726 23.3332 14.0001 23.3332C17.7276 23.3332 20.6571 23.2107 22.7501 23.0648C24.8349 22.9202 26.4507 21.2997 26.6211 19.1798C26.7401 17.6947 26.8334 15.9038 26.8334 13.9998C26.8334 12.1612 26.7471 10.4298 26.6327 8.975C26.5601 7.92838 26.1115 6.94331 25.3696 6.20145C24.6278 5.45959 23.6427 5.01098 22.5961 4.93834C20.5217 4.79134 17.6914 4.6665 14.0001 4.6665C10.3087 4.6665 7.47725 4.79134 5.40408 4.93834C4.35745 5.01098 3.37239 5.45959 2.63053 6.20145C1.88867 6.94331 1.44006 7.92838 1.36741 8.975ZM18.0834 13.9998L11.6667 10.4998V17.4998L18.0834 13.9998Z" fill="#EEEEEE"/>
</g>
<defs>
<clipPath id="clip0_460_4464">
<rect width="28" height="28" fill="white"/>
</clipPath>
</defs>
</svg>
